<svg xmlns="http://www.w3.org/2000/svg" width="25" height="25" viewBox="0 0 25 25" fill="none">
<path fill-rule="evenodd" clip-rule="evenodd" d="M15.6252 9.89551H17.2815C18.2086 9.89551 18.6669 11.0205 18.0107 11.6768L13.2294 16.458C12.8232 16.8643 12.1669 16.8643 11.7607 16.458L6.97941 11.6768C6.32316 11.0205 6.79191 9.89551 7.71899 9.89551H9.37524V4.68717C9.37524 4.11426 9.84399 3.64551 10.4169 3.64551H14.5836C15.1565 3.64551 15.6252 4.11426 15.6252 4.68717V9.89551ZM6.25016 21.3538C5.67725 21.3538 5.2085 20.8851 5.2085 20.3122C5.2085 19.7393 5.67725 19.2705 6.25016 19.2705H18.7502C19.3231 19.2705 19.7918 19.7393 19.7918 20.3122C19.7918 20.8851 19.3231 21.3538 18.7502 21.3538H6.25016Z" fill="#BDC5CE"/>
</svg>