<svg xmlns="http://www.w3.org/2000/svg" width="25" height="24" viewBox="0 0 25 24" fill="none">
<path fill-rule="evenodd" clip-rule="evenodd" d="M12.4158 6.52126C9.21926 6.52126 6.62151 9.11901 6.62151 12.3155H9.51863L5.6558 16.1783L1.79297 12.3155H4.69009C4.69009 8.04708 8.14733 4.58984 12.4158 4.58984C13.9319 4.58984 15.3419 5.03407 16.5297 5.78732L15.1197 7.19726C14.3182 6.76269 13.3911 6.52126 12.4158 6.52126ZM15.3128 12.3155L19.1756 8.45271L23.0384 12.3155H20.1413C20.1413 16.584 16.6841 20.0412 12.4157 20.0412C10.8995 20.0412 9.48956 19.597 8.30174 18.8437L9.71167 17.4338C10.5132 17.8684 11.4403 18.1098 12.4157 18.1098C15.6121 18.1098 18.2099 15.512 18.2099 12.3155H15.3128Z" fill="#BDC5CE"/>
</svg>