<svg xmlns="http://www.w3.org/2000/svg" width="21" height="20" viewBox="0 0 21 20" fill="none">
<path d="M15.7241 11.9767L14.877 8.22266" stroke="#BDC5CE" stroke-width="1.5" stroke-miterlimit="10" stroke-linecap="round" stroke-linejoin="round"/>
<path d="M11.8895 5.34515L7.16602 4.43359" stroke="#BDC5CE" stroke-width="1.5" stroke-miterlimit="10" stroke-linecap="round" stroke-linejoin="round"/>
<path d="M4.66602 6.57422C6.04673 6.57422 7.16602 5.45493 7.16602 4.07422C7.16602 2.69351 6.04673 1.57422 4.66602 1.57422C3.2853 1.57422 2.16602 2.69351 2.16602 4.07422C2.16602 5.45493 3.2853 6.57422 4.66602 6.57422Z" stroke="#BDC5CE" stroke-width="1.5" stroke-miterlimit="10" stroke-linecap="round" stroke-linejoin="round"/>
<path d="M14.3906 8.22266C15.7713 8.22266 16.8906 7.10337 16.8906 5.72266C16.8906 4.34194 15.7713 3.22266 14.3906 3.22266C13.0099 3.22266 11.8906 4.34194 11.8906 5.72266C11.8906 7.10337 13.0099 8.22266 14.3906 8.22266Z" stroke="#BDC5CE" stroke-width="1.5" stroke-miterlimit="10" stroke-linecap="round" stroke-linejoin="round"/>
<path d="M13.7135 14.7979L9.00977 15.8633" stroke="#BDC5CE" stroke-width="1.5" stroke-miterlimit="10" stroke-linecap="round" stroke-linejoin="round"/>
<path d="M12.7821 7.75171L8.01172 13.6367" stroke="#BDC5CE" stroke-width="1.5" stroke-miterlimit="10" stroke-linecap="round" stroke-linejoin="round"/>
<path d="M6.50977 18.3633C7.89048 18.3633 9.00977 17.244 9.00977 15.8633C9.00977 14.4826 7.89048 13.3633 6.50977 13.3633C5.12905 13.3633 4.00977 14.4826 4.00977 15.8633C4.00977 17.244 5.12905 18.3633 6.50977 18.3633Z" stroke="#BDC5CE" stroke-width="1.5" stroke-miterlimit="10" stroke-linecap="round" stroke-linejoin="round"/>
<path d="M16.2129 16.9766C17.5936 16.9766 18.7129 15.8573 18.7129 14.4766C18.7129 13.0959 17.5936 11.9766 16.2129 11.9766C14.8322 11.9766 13.7129 13.0959 13.7129 14.4766C13.7129 15.8573 14.8322 16.9766 16.2129 16.9766Z" stroke="#BDC5CE" stroke-width="1.5" stroke-miterlimit="10" stroke-linecap="round" stroke-linejoin="round"/>
</svg>